TITLE ""
FILE "LR_black_phrase_C06.mp3" MP3
  TRACK 01 AUDIO
    TITLE "LR_black_phrase_C06_001"
    INDEX 01 00:00:00
  TRACK 02 AUDIO
    TITLE "LR_black_phrase_C06_002"
    INDEX 01 00:00:14
  TRACK 03 AUDIO
    TITLE "LR_black_phrase_C06_003"
    INDEX 01 00:01:25
  TRACK 04 AUDIO
    TITLE "LR_black_phrase_C06_004"
    INDEX 01 00:01:63
  TRACK 05 AUDIO
    TITLE "LR_black_phrase_C06_005"
    INDEX 01 00:03:65
  TRACK 06 AUDIO
    TITLE "LR_black_phrase_C06_006"
    INDEX 01 00:04:63
  TRACK 07 AUDIO
    TITLE "LR_black_phrase_C06_007"
    INDEX 01 00:06:66
  TRACK 08 AUDIO
    TITLE "LR_black_phrase_C06_008"
    INDEX 01 00:07:30
  TRACK 09 AUDIO
    TITLE "LR_black_phrase_C06_009"
    INDEX 01 00:09:60
  TRACK 10 AUDIO
    TITLE "LR_black_phrase_C06_010"
    INDEX 01 00:10:15
  TRACK 11 AUDIO
    TITLE "LR_black_phrase_C06_011"
    INDEX 01 00:12:45
  TRACK 12 AUDIO
    TITLE "LR_black_phrase_C06_012"
    INDEX 01 00:13:50
  TRACK 13 AUDIO
    TITLE "LR_black_phrase_C06_013"
    INDEX 01 00:14:65
  TRACK 14 AUDIO
    TITLE "LR_black_phrase_C06_014"
    INDEX 01 00:15:29
  TRACK 15 AUDIO
    TITLE "LR_black_phrase_C06_015"
    INDEX 01 00:16:50
  TRACK 16 AUDIO
    TITLE "LR_black_phrase_C06_016"
    INDEX 01 00:17:48
  TRACK 17 AUDIO
    TITLE "LR_black_phrase_C06_017"
    INDEX 01 00:20:05
  TRACK 18 AUDIO
    TITLE "LR_black_phrase_C06_018"
    INDEX 01 00:20:44
  TRACK 19 AUDIO
    TITLE "LR_black_phrase_C06_019"
    INDEX 01 00:23:21
  TRACK 20 AUDIO
    TITLE "LR_black_phrase_C06_020"
    INDEX 01 00:23:49
  TRACK 21 AUDIO
    TITLE "LR_black_phrase_C06_021"
    INDEX 01 00:26:25
  TRACK 22 AUDIO
    TITLE "LR_black_phrase_C06_022"
    INDEX 01 00:27:23
  TRACK 23 AUDIO
    TITLE "LR_black_phrase_C06_023"
    INDEX 01 00:28:30
  TRACK 24 AUDIO
    TITLE "LR_black_phrase_C06_024"
    INDEX 01 00:28:65
  TRACK 25 AUDIO
    TITLE "LR_black_phrase_C06_025"
    INDEX 01 00:30:68
  TRACK 26 AUDIO
    TITLE "LR_black_phrase_C06_026"
    INDEX 01 00:31:68
  TRACK 27 AUDIO
    TITLE "LR_black_phrase_C06_027"
    INDEX 01 00:33:31
  TRACK 28 AUDIO
    TITLE "LR_black_phrase_C06_028"
    INDEX 01 00:33:65
  TRACK 29 AUDIO
    TITLE "LR_black_phrase_C06_029"
    INDEX 01 00:35:52
  TRACK 30 AUDIO
    TITLE "LR_black_phrase_C06_030"
    INDEX 01 00:35:71
  TRACK 31 AUDIO
    TITLE "LR_black_phrase_C06_031"
    INDEX 01 00:37:58
  TRACK 32 AUDIO
    TITLE "LR_black_phrase_C06_032"
    INDEX 01 00:38:54
  TRACK 33 AUDIO
    TITLE "LR_black_phrase_C06_033"
    INDEX 01 00:39:69
  TRACK 34 AUDIO
    TITLE "LR_black_phrase_C06_034"
    INDEX 01 00:40:27
  TRACK 35 AUDIO
    TITLE "LR_black_phrase_C06_035"
    INDEX 01 00:42:48
  TRACK 36 AUDIO
    TITLE "LR_black_phrase_C06_036"
    INDEX 01 00:43:47
  TRACK 37 AUDIO
    TITLE "LR_black_phrase_C06_037"
    INDEX 01 00:46:16
  TRACK 38 AUDIO
    TITLE "LR_black_phrase_C06_038"
    INDEX 01 00:46:52
  TRACK 39 AUDIO
    TITLE "LR_black_phrase_C06_039"
    INDEX 01 00:49:32
  TRACK 40 AUDIO
    TITLE "LR_black_phrase_C06_040"
    INDEX 01 00:49:52
  TRACK 41 AUDIO
    TITLE "LR_black_phrase_C06_041"
    INDEX 01 00:52:33
  TRACK 42 AUDIO
    TITLE "LR_black_phrase_C06_042"
    INDEX 01 00:53:34
  TRACK 43 AUDIO
    TITLE "LR_black_phrase_C06_043"
    INDEX 01 00:54:59
  TRACK 44 AUDIO
    TITLE "LR_black_phrase_C06_044"
    INDEX 01 00:55:23
  TRACK 45 AUDIO
    TITLE "LR_black_phrase_C06_045"
    INDEX 01 00:56:58
  TRACK 46 AUDIO
    TITLE "LR_black_phrase_C06_046"
    INDEX 01 00:57:55
  TRACK 47 AUDIO
    TITLE "LR_black_phrase_C06_047"
    INDEX 01 01:00:48
  TRACK 48 AUDIO
    TITLE "LR_black_phrase_C06_048"
    INDEX 01 01:01:12
  TRACK 49 AUDIO
    TITLE "LR_black_phrase_C06_049"
    INDEX 01 01:03:60
  TRACK 50 AUDIO
    TITLE "LR_black_phrase_C06_050"
    INDEX 01 01:04:12
  TRACK 51 AUDIO
    TITLE "LR_black_phrase_C06_051"
    INDEX 01 01:06:58
  TRACK 52 AUDIO
    TITLE "LR_black_phrase_C06_052"
    INDEX 01 01:07:64
  TRACK 53 AUDIO
    TITLE "LR_black_phrase_C06_053"
    INDEX 01 01:09:04
  TRACK 54 AUDIO
    TITLE "LR_black_phrase_C06_054"
    INDEX 01 01:09:43
  TRACK 55 AUDIO
    TITLE "LR_black_phrase_C06_055"
    INDEX 01 01:10:60
  TRACK 56 AUDIO
    TITLE "LR_black_phrase_C06_056"
    INDEX 01 01:11:57
  TRACK 57 AUDIO
    TITLE "LR_black_phrase_C06_057"
    INDEX 01 01:13:64
  TRACK 58 AUDIO
    TITLE "LR_black_phrase_C06_058"
    INDEX 01 01:14:32
  TRACK 59 AUDIO
    TITLE "LR_black_phrase_C06_059"
    INDEX 01 01:16:27
  TRACK 60 AUDIO
    TITLE "LR_black_phrase_C06_060"
    INDEX 01 01:16:60
  TRACK 61 AUDIO
    TITLE "LR_black_phrase_C06_061"
    INDEX 01 01:18:55
  TRACK 62 AUDIO
    TITLE "LR_black_phrase_C06_062"
    INDEX 01 01:19:55
  TRACK 63 AUDIO
    TITLE "LR_black_phrase_C06_063"
    INDEX 01 01:20:60
  TRACK 64 AUDIO
    TITLE "LR_black_phrase_C06_064"
    INDEX 01 01:21:21
  TRACK 65 AUDIO
    TITLE "LR_black_phrase_C06_065"
    INDEX 01 01:23:59
  TRACK 66 AUDIO
    TITLE "LR_black_phrase_C06_066"
    INDEX 01 01:24:58
  TRACK 67 AUDIO
    TITLE "LR_black_phrase_C06_067"
    INDEX 01 01:27:07
  TRACK 68 AUDIO
    TITLE "LR_black_phrase_C06_068"
    INDEX 01 01:27:43
  TRACK 69 AUDIO
    TITLE "LR_black_phrase_C06_069"
    INDEX 01 01:30:16
  TRACK 70 AUDIO
    TITLE "LR_black_phrase_C06_070"
    INDEX 01 01:30:35
  TRACK 71 AUDIO
    TITLE "LR_black_phrase_C06_071"
    INDEX 01 01:33:06
  TRACK 72 AUDIO
    TITLE "LR_black_phrase_C06_072"
    INDEX 01 01:34:04
  TRACK 73 AUDIO
    TITLE "LR_black_phrase_C06_073"
    INDEX 01 01:35:28
  TRACK 74 AUDIO
    TITLE "LR_black_phrase_C06_074"
    INDEX 01 01:35:60
  TRACK 75 AUDIO
    TITLE "LR_black_phrase_C06_075"
    INDEX 01 01:37:72
  TRACK 76 AUDIO
    TITLE "LR_black_phrase_C06_076"
    INDEX 01 01:38:72
  TRACK 77 AUDIO
    TITLE "LR_black_phrase_C06_077"
    INDEX 01 01:40:55
  TRACK 78 AUDIO
    TITLE "LR_black_phrase_C06_078"
    INDEX 01 01:41:17
  TRACK 79 AUDIO
    TITLE "LR_black_phrase_C06_079"
    INDEX 01 01:43:06
  TRACK 80 AUDIO
    TITLE "LR_black_phrase_C06_080"
    INDEX 01 01:43:30
  TRACK 81 AUDIO
    TITLE "LR_black_phrase_C06_081"
    INDEX 01 01:45:17
  TRACK 82 AUDIO
    TITLE "LR_black_phrase_C06_082"
    INDEX 01 01:46:18
  TRACK 83 AUDIO
    TITLE "LR_black_phrase_C06_083"
    INDEX 01 01:47:22
  TRACK 84 AUDIO
    TITLE "LR_black_phrase_C06_084"
    INDEX 01 01:47:59
  TRACK 85 AUDIO
    TITLE "LR_black_phrase_C06_085"
    INDEX 01 01:49:07
  TRACK 86 AUDIO
    TITLE "LR_black_phrase_C06_086"
    INDEX 01 01:50:06
  TRACK 87 AUDIO
    TITLE "LR_black_phrase_C06_087"
    INDEX 01 01:52:39
  TRACK 88 AUDIO
    TITLE "LR_black_phrase_C06_088"
    INDEX 01 01:53:05
  TRACK 89 AUDIO
    TITLE "LR_black_phrase_C06_089"
    INDEX 01 01:55:55
  TRACK 90 AUDIO
    TITLE "LR_black_phrase_C06_090"
    INDEX 01 01:56:09
  TRACK 91 AUDIO
    TITLE "LR_black_phrase_C06_091"
    INDEX 01 01:58:61
  TRACK 92 AUDIO
    TITLE "LR_black_phrase_C06_092"
    INDEX 01 01:59:66
  TRACK 93 AUDIO
    TITLE "LR_black_phrase_C06_093"
    INDEX 01 02:00:66
  TRACK 94 AUDIO
    TITLE "LR_black_phrase_C06_094"
    INDEX 01 02:01:30
  TRACK 95 AUDIO
    TITLE "LR_black_phrase_C06_095"
    INDEX 01 02:03:44
  TRACK 96 AUDIO
    TITLE "LR_black_phrase_C06_096"
    INDEX 01 02:04:44
  TRACK 97 AUDIO
    TITLE "LR_black_phrase_C06_097"
    INDEX 01 02:06:23
  TRACK 98 AUDIO
    TITLE "LR_black_phrase_C06_098"
    INDEX 01 02:06:62
  TRACK 99 AUDIO
    TITLE "LR_black_phrase_C06_099"
    INDEX 01 02:08:53
  TRACK 100 AUDIO
    TITLE "LR_black_phrase_C06_100"
    INDEX 01 02:09:10
  TRACK 101 AUDIO
    TITLE "LR_black_phrase_C06_101"
    INDEX 01 02:11:01
  TRACK 102 AUDIO
    TITLE "LR_black_phrase_C06_102"
    INDEX 01 02:12:02
  TRACK 103 AUDIO
    TITLE "LR_black_phrase_C06_103"
    INDEX 01 02:12:75
  TRACK 104 AUDIO
    TITLE "LR_black_phrase_C06_104"
    INDEX 01 02:13:37
  TRACK 105 AUDIO
    TITLE "LR_black_phrase_C06_105"
    INDEX 01 02:14:48
  TRACK 106 AUDIO
    TITLE "LR_black_phrase_C06_106"
    INDEX 01 02:15:48
  TRACK 107 AUDIO
    TITLE "LR_black_phrase_C06_107"
    INDEX 01 02:17:13
  TRACK 108 AUDIO
    TITLE "LR_black_phrase_C06_108"
    INDEX 01 02:17:48
  TRACK 109 AUDIO
    TITLE "LR_black_phrase_C06_109"
    INDEX 01 02:19:30
  TRACK 110 AUDIO
    TITLE "LR_black_phrase_C06_110"
    INDEX 01 02:19:49
  TRACK 111 AUDIO
    TITLE "LR_black_phrase_C06_111"
    INDEX 01 02:21:29
  TRACK 112 AUDIO
    TITLE "LR_black_phrase_C06_112"
    INDEX 01 02:22:22
  TRACK 113 AUDIO
    TITLE "LR_black_phrase_C06_113"
    INDEX 01 02:23:28
  TRACK 114 AUDIO
    TITLE "LR_black_phrase_C06_114"
    INDEX 01 02:23:67
  TRACK 115 AUDIO
    TITLE "LR_black_phrase_C06_115"
    INDEX 01 02:26:63
  TRACK 116 AUDIO
    TITLE "LR_black_phrase_C06_116"
    INDEX 01 02:27:63
  TRACK 117 AUDIO
    TITLE "LR_black_phrase_C06_117"
    INDEX 01 02:29:38
  TRACK 118 AUDIO
    TITLE "LR_black_phrase_C06_118"
    INDEX 01 02:30:02
  TRACK 119 AUDIO
    TITLE "LR_black_phrase_C06_119"
    INDEX 01 02:31:47
  TRACK 120 AUDIO
    TITLE "LR_black_phrase_C06_120"
    INDEX 01 02:31:72
  TRACK 121 AUDIO
    TITLE "LR_black_phrase_C06_121"
    INDEX 01 02:33:42
  TRACK 122 AUDIO
    TITLE "LR_black_phrase_C06_122"
    INDEX 01 02:34:43
  TRACK 123 AUDIO
    TITLE "LR_black_phrase_C06_123"
    INDEX 01 02:35:60
  TRACK 124 AUDIO
    TITLE "LR_black_phrase_C06_124"
    INDEX 01 02:36:24
  TRACK 125 AUDIO
    TITLE "LR_black_phrase_C06_125"
    INDEX 01 02:37:57
  TRACK 126 AUDIO
    TITLE "LR_black_phrase_C06_126"
    INDEX 01 02:38:58
  TRACK 127 AUDIO
    TITLE "LR_black_phrase_C06_127"
    INDEX 01 02:40:67
  TRACK 128 AUDIO
    TITLE "LR_black_phrase_C06_128"
    INDEX 01 02:41:31
  TRACK 129 AUDIO
    TITLE "LR_black_phrase_C06_129"
    INDEX 01 02:43:60
  TRACK 130 AUDIO
    TITLE "LR_black_phrase_C06_130"
    INDEX 01 02:44:12
  TRACK 131 AUDIO
    TITLE "LR_black_phrase_C06_131"
    INDEX 01 02:46:42
  TRACK 132 AUDIO
    TITLE "LR_black_phrase_C06_132"
    INDEX 01 02:47:46
  TRACK 133 AUDIO
    TITLE "LR_black_phrase_C06_133"
    INDEX 01 02:48:63
  TRACK 134 AUDIO
    TITLE "LR_black_phrase_C06_134"
    INDEX 01 02:49:25
  TRACK 135 AUDIO
    TITLE "LR_black_phrase_C06_135"
    INDEX 01 02:51:43
  TRACK 136 AUDIO
    TITLE "LR_black_phrase_C06_136"
    INDEX 01 02:52:41
  TRACK 137 AUDIO
    TITLE "LR_black_phrase_C06_137"
    INDEX 01 02:54:18
  TRACK 138 AUDIO
    TITLE "LR_black_phrase_C06_138"
    INDEX 01 02:54:54
  TRACK 139 AUDIO
    TITLE "LR_black_phrase_C06_139"
    INDEX 01 02:56:64
  TRACK 140 AUDIO
    TITLE "LR_black_phrase_C06_140"
    INDEX 01 02:57:19
  TRACK 141 AUDIO
    TITLE "LR_black_phrase_C06_141"
    INDEX 01 02:59:29
  TRACK 142 AUDIO
    TITLE "LR_black_phrase_C06_142"
    INDEX 01 03:00:31
  TRACK 143 AUDIO
    TITLE "LR_black_phrase_C06_143"
    INDEX 01 03:01:32
  TRACK 144 AUDIO
    TITLE "LR_black_phrase_C06_144"
    INDEX 01 03:01:65
  TRACK 145 AUDIO
    TITLE "LR_black_phrase_C06_145"
    INDEX 01 03:05:16
  TRACK 146 AUDIO
    TITLE "LR_black_phrase_C06_146"
    INDEX 01 03:06:14
  TRACK 147 AUDIO
    TITLE "LR_black_phrase_C06_147"
    INDEX 01 03:08:20
  TRACK 148 AUDIO
    TITLE "LR_black_phrase_C06_148"
    INDEX 01 03:08:52
  TRACK 149 AUDIO
    TITLE "LR_black_phrase_C06_149"
    INDEX 01 03:10:56
  TRACK 150 AUDIO
    TITLE "LR_black_phrase_C06_150"
    INDEX 01 03:10:74
  TRACK 151 AUDIO
    TITLE "LR_black_phrase_C06_151"
    INDEX 01 03:13:04
  TRACK 152 AUDIO
    TITLE "LR_black_phrase_C06_152"
    INDEX 01 03:13:72
  TRACK 153 AUDIO
    TITLE "LR_black_phrase_C06_153"
    INDEX 01 03:15:07
  TRACK 154 AUDIO
    TITLE "LR_black_phrase_C06_154"
    INDEX 01 03:15:44
  TRACK 155 AUDIO
    TITLE "LR_black_phrase_C06_155"
    INDEX 01 03:18:38
  TRACK 156 AUDIO
    TITLE "LR_black_phrase_C06_156"
    INDEX 01 03:19:38
  TRACK 157 AUDIO
    TITLE "LR_black_phrase_C06_157"
    INDEX 01 03:21:56
  TRACK 158 AUDIO
    TITLE "LR_black_phrase_C06_158"
    INDEX 01 03:22:19
  TRACK 159 AUDIO
    TITLE "LR_black_phrase_C06_159"
    INDEX 01 03:23:65
  TRACK 160 AUDIO
    TITLE "LR_black_phrase_C06_160"
    INDEX 01 03:24:12
  TRACK 161 AUDIO
    TITLE "LR_black_phrase_C06_161"
    INDEX 01 03:25:60
  TRACK 162 AUDIO
    TITLE "LR_black_phrase_C06_162"
    INDEX 01 03:26:61
  TRACK 163 AUDIO
    TITLE "LR_black_phrase_C06_163"
    INDEX 01 03:28:07
  TRACK 164 AUDIO
    TITLE "LR_black_phrase_C06_164"
    INDEX 01 03:28:48
  TRACK 165 AUDIO
    TITLE "LR_black_phrase_C06_165"
    INDEX 01 03:30:75
  TRACK 166 AUDIO
    TITLE "LR_black_phrase_C06_166"
    INDEX 01 03:32:01
  TRACK 167 AUDIO
    TITLE "LR_black_phrase_C06_167"
    INDEX 01 03:33:63
  TRACK 168 AUDIO
    TITLE "LR_black_phrase_C06_168"
    INDEX 01 03:34:31
  TRACK 169 AUDIO
    TITLE "LR_black_phrase_C06_169"
    INDEX 01 03:36:50
  TRACK 170 AUDIO
    TITLE "LR_black_phrase_C06_170"
    INDEX 01 03:37:06
  TRACK 171 AUDIO
    TITLE "LR_black_phrase_C06_171"
    INDEX 01 03:39:25
  TRACK 172 AUDIO
    TITLE "LR_black_phrase_C06_172"
    INDEX 01 03:40:28
  TRACK 173 AUDIO
    TITLE "LR_black_phrase_C06_173"
    INDEX 01 03:41:53
  TRACK 174 AUDIO
    TITLE "LR_black_phrase_C06_174"
    INDEX 01 03:42:17
  TRACK 175 AUDIO
    TITLE "LR_black_phrase_C06_175"
    INDEX 01 03:44:26
  TRACK 176 AUDIO
    TITLE "LR_black_phrase_C06_176"
    INDEX 01 03:45:23
  TRACK 177 AUDIO
    TITLE "LR_black_phrase_C06_177"
    INDEX 01 03:47:01
  TRACK 178 AUDIO
    TITLE "LR_black_phrase_C06_178"
    INDEX 01 03:47:40
  TRACK 179 AUDIO
    TITLE "LR_black_phrase_C06_179"
    INDEX 01 03:49:15
  TRACK 180 AUDIO
    TITLE "LR_black_phrase_C06_180"
    INDEX 01 03:49:45
  TRACK 181 AUDIO
    TITLE "LR_black_phrase_C06_181"
    INDEX 01 03:51:20
  TRACK 182 AUDIO
    TITLE "LR_black_phrase_C06_182"
    INDEX 01 03:52:22
  TRACK 183 AUDIO
    TITLE "LR_black_phrase_C06_183"
    INDEX 01 03:53:41
  TRACK 184 AUDIO
    TITLE "LR_black_phrase_C06_184"
    INDEX 01 03:54:01
  TRACK 185 AUDIO
    TITLE "LR_black_phrase_C06_185"
    INDEX 01 03:56:51
  TRACK 186 AUDIO
    TITLE "LR_black_phrase_C06_186"
    INDEX 01 03:57:50
  TRACK 187 AUDIO
    TITLE "LR_black_phrase_C06_187"
    INDEX 01 04:00:07
  TRACK 188 AUDIO
    TITLE "LR_black_phrase_C06_188"
    INDEX 01 04:00:43
  TRACK 189 AUDIO
    TITLE "LR_black_phrase_C06_189"
    INDEX 01 04:02:47
  TRACK 190 AUDIO
    TITLE "LR_black_phrase_C06_190"
    INDEX 01 04:02:67
  TRACK 191 AUDIO
    TITLE "LR_black_phrase_C06_191"
    INDEX 01 04:04:74
  TRACK 192 AUDIO
    TITLE "LR_black_phrase_C06_192"
    INDEX 01 04:05:67
  TRACK 193 AUDIO
    TITLE "LR_black_phrase_C06_193"
    INDEX 01 04:07:09
  TRACK 194 AUDIO
    TITLE "LR_black_phrase_C06_194"
    INDEX 01 04:07:45
  TRACK 195 AUDIO
    TITLE "LR_black_phrase_C06_195"
    INDEX 01 04:10:27
  TRACK 196 AUDIO
    TITLE "LR_black_phrase_C06_196"
    INDEX 01 04:11:27
  TRACK 197 AUDIO
    TITLE "LR_black_phrase_C06_197"
    INDEX 01 04:13:33
  TRACK 198 AUDIO
    TITLE "LR_black_phrase_C06_198"
    INDEX 01 04:13:65
  TRACK 199 AUDIO
    TITLE "LR_black_phrase_C06_199"
    INDEX 01 04:15:58
  TRACK 200 AUDIO
    TITLE "LR_black_phrase_C06_200"
    INDEX 01 04:16:02
  TRACK 201 AUDIO
    TITLE "LR_black_phrase_C06_201"
    INDEX 01 04:17:70
